<svg xmlns="http://www.w3.org/2000/svg" width="1254" height="1254" viewBox="0 0 1254 1254" fill="none">
  <defs>
    <clipPath id="bodyClip">
      <rect x="186" y="401" width="840" height="518" rx="30" ry="30"/>
    </clipPath>
  </defs>

  <g stroke="#9E8168" stroke-linecap="round" stroke-linejoin="round" fill="none">
    <rect x="186" y="401" width="840" height="518" rx="30" ry="30" stroke-width="8"/>
    <rect x="255" y="354" width="74" height="47" rx="10" ry="10" stroke-width="8"/>
    <rect x="372" y="371" width="95" height="30" rx="10" ry="10" stroke-width="8"/>
    <path d="M520 401 L548 333 Q552 328 560 328 H736 Q744 328 748 333 L776 401" stroke-width="8"/>
  </g>

  <g clip-path="url(#bodyClip)" stroke="#9E8168" stroke-linecap="round" fill="none">
    <line x1="190" y1="521" x2="472.9" y2="521" stroke-width="8"/>
    <line x1="771.1" y1="521" x2="1022" y2="521" stroke-width="8"/>
    <line x1="190" y1="790" x2="470.0" y2="790" stroke-width="8"/>
    <line x1="774.0" y1="790" x2="1022" y2="790" stroke-width="8"/>
    <line x1="190" y1="540" x2="456.8" y2="540" stroke-width="3.8"/>
    <line x1="787.2" y1="540" x2="906" y2="540" stroke-width="3.8"/>
    <line x1="978" y1="540" x2="1022" y2="540" stroke-width="3.8"/>
    <line x1="190" y1="560" x2="443.7" y2="560" stroke-width="3.8"/>
    <line x1="800.3" y1="560" x2="906" y2="560" stroke-width="3.8"/>
    <line x1="978" y1="560" x2="1022" y2="560" stroke-width="3.8"/>
    <line x1="190" y1="580" x2="433.8" y2="580" stroke-width="3.8"/>
    <line x1="810.2" y1="580" x2="1022" y2="580" stroke-width="3.8"/>
    <line x1="190" y1="600" x2="426.5" y2="600" stroke-width="3.8"/>
    <line x1="817.5" y1="600" x2="1022" y2="600" stroke-width="3.8"/>
    <line x1="190" y1="620" x2="421.5" y2="620" stroke-width="3.8"/>
    <line x1="822.5" y1="620" x2="1022" y2="620" stroke-width="3.8"/>
    <line x1="190" y1="640" x2="418.7" y2="640" stroke-width="3.8"/>
    <line x1="825.3" y1="640" x2="1022" y2="640" stroke-width="3.8"/>
    <line x1="190" y1="660" x2="418.0" y2="660" stroke-width="3.8"/>
    <line x1="826.0" y1="660" x2="1022" y2="660" stroke-width="3.8"/>
    <line x1="190" y1="680" x2="419.4" y2="680" stroke-width="3.8"/>
    <line x1="824.6" y1="680" x2="1022" y2="680" stroke-width="3.8"/>
    <line x1="190" y1="700" x2="422.8" y2="700" stroke-width="3.8"/>
    <line x1="821.2" y1="700" x2="1022" y2="700" stroke-width="3.8"/>
    <line x1="190" y1="720" x2="428.4" y2="720" stroke-width="3.8"/>
    <line x1="815.6" y1="720" x2="1022" y2="720" stroke-width="3.8"/>
    <line x1="190" y1="740" x2="436.4" y2="740" stroke-width="3.8"/>
    <line x1="807.6" y1="740" x2="1022" y2="740" stroke-width="3.8"/>
    <line x1="190" y1="760" x2="447.2" y2="760" stroke-width="3.8"/>
    <line x1="796.8" y1="760" x2="1022" y2="760" stroke-width="3.8"/>
    <line x1="190" y1="832" x2="525.7" y2="832" stroke-width="3.8"/>
    <line x1="718.3" y1="832" x2="1022" y2="832" stroke-width="3.8"/>
    <line x1="190" y1="848" x2="570.0" y2="848" stroke-width="3.8"/>
    <line x1="674.0" y1="848" x2="1022" y2="848" stroke-width="3.8"/>
    <line x1="190" y1="864" x2="1022" y2="864" stroke-width="3.8"/>
  </g>

  <g stroke="#9E8168" stroke-linecap="round" stroke-linejoin="round" fill="none">
    <rect x="879" y="439" width="90" height="61" rx="12" ry="12" stroke-width="8"/>
    <path d="M896 447 q-5 8 -5 18 v17 q0 10 5 17" stroke-width="3.8"/>
    <rect x="915" y="536" width="54" height="24" rx="8" ry="8" stroke-width="8"/>
    <line x1="996.0" y1="319.0" x2="996.0" y2="249.0" stroke-width="8"/>
    <line x1="1075.2" y1="351.8" x2="1124.7" y2="302.3" stroke-width="8"/>
    <line x1="1108.0" y1="431.0" x2="1178.0" y2="431.0" stroke-width="8"/>
    <circle cx="622" cy="657" r="196" stroke-width="8"/>
    <circle cx="622" cy="657" r="166" stroke-width="3.8"/>
    <circle cx="622" cy="657" r="153" stroke-width="8"/>
    <path d="M 557.9 568.8 A 109.0 109.0 0 0 0 517.8 625.1" stroke-width="12"/>
  </g>
  <circle cx="511.7" cy="692.8" r="8" fill="#9E8168"/>
</svg>
