<svg xmlns="http://www.w3.org/2000/svg" width="18" height="18" viewBox="-0.5 1 19 17.5">
  <symbol id="transport-car" viewBox="-0.5 1 19 17.5">
    <path d="M18 7H15L16 9H18V7Z" fill="currentColor"/>
    <path d="M3 7H0V9H2L3 7Z" fill="currentColor"/>
    <path d="M1.5 15V10L3 7.5L3.72147 3.1712C3.8822 2.20683 4.71658 1.5 5.69425 1.5H12.3057C13.2834 1.5 14.1178 2.20683 14.2785 3.1712L15 7.5L16.5 10V15H1.5Z" fill="currentColor" stroke="currentColor"/>
    <path d="M4.1 7.45L4.75 3.55C4.83986 3.01085 5.30669 2.615 5.85327 2.615H12.1467C12.6933 2.615 13.1601 3.01085 13.25 3.55L13.9 7.45H4.1Z" fill="#FFFFFF"/>
    <circle cx="4" cy="11.25" r="1" fill="#FFFFFF"/>
    <circle cx="14" cy="11.25" r="1" fill="#FFFFFF"/>
    <path d="M13 15H16V17.5C16 17.7761 15.7761 18 15.5 18H13.5C13.2239 18 13 17.7761 13 17.5V15Z" fill="currentColor"/>
    <path d="M2 15H5V17.5C5 17.7761 4.77614 18 4.5 18H2.5C2.22386 18 2 17.7761 2 17.5V15Z" fill="currentColor"/>
  </symbol>
  <use href="#transport-car" color="#C2B0A2"/>
</svg>
